<svg width="15" height="15" viewBox="0 0 15 15" fill="none" xmlns="http://www.w3.org/2000/svg">
<g clip-path="url(#clip0_1_331)">
<path d="M7.4985 9.24457C7.63603 9.24457 7.77058 9.19075 7.86924 9.09209C7.96791 8.99342 8.02172 8.86187 8.02172 8.72135V4.01236C8.02172 3.824 7.92306 3.65358 7.75862 3.5579C7.59717 3.46522 7.39685 3.46522 7.2354 3.5579C7.07394 3.65059 6.97229 3.824 6.97229 4.01236V8.72135C6.97229 8.85888 7.02611 8.99342 7.12477 9.09209C7.22344 9.19075 7.36097 9.24457 7.4985 9.24457Z" fill="#D8315B"/>
<path d="M8.37155 10.8142C8.37155 11.2956 7.97988 11.6873 7.49852 11.6873C7.01716 11.6873 6.62549 11.2956 6.62549 10.8142C6.62549 10.3329 7.01716 9.94119 7.49852 9.94119C7.97988 9.94119 8.37155 10.3329 8.37155 10.8142Z" fill="#D8315B"/>
<path d="M7.49849 0C5.51025 0 3.60274 0.789316 2.19752 2.19753C0.789315 3.60275 0 5.51027 0 7.49851C0 9.48674 0.789315 11.3943 2.19752 12.8025C3.60274 14.2077 5.51025 15 7.50148 15C9.49271 15 11.3972 14.2107 12.8054 12.8025C14.2107 11.3972 15.003 9.48973 15.003 7.49851C15 5.51027 14.2107 3.60275 12.8054 2.19753C11.3942 0.792306 9.48673 0.00298983 7.49849 0ZM7.49849 13.9536C5.78831 13.9536 4.14689 13.2749 2.93601 12.064C1.72513 10.8531 1.04644 9.21168 1.04644 7.49851C1.04644 5.78533 1.72513 4.1469 2.93601 2.93602C4.14689 1.72513 5.78831 1.04644 7.49849 1.04644C9.20867 1.04644 10.8531 1.72513 12.064 2.93602C13.2748 4.1469 13.9535 5.78832 13.9535 7.49851C13.9505 9.20869 13.2718 10.8501 12.061 12.061C10.8501 13.2689 9.21166 13.9506 7.49849 13.9536Z" fill="#D8315B"/>
</g>
<defs>
<clipPath id="clip0_1_331">
<rect width="15" height="15" fill="white"/>
</clipPath>
</defs>
</svg>
