<svg width="24" height="24" viewBox="0 0 24 24" fill="none" xmlns="http://www.w3.org/2000/svg">
<path d="M16.6241 16.6792V17.757H5.12932C4.82707 17.757 4.52481 17.8575 4.29474 18.0402L1.59248 20.164V3.61224H16.6241V8.4992L18.2165 6.68143V3.37931C18.2165 2.61201 17.585 2 16.8541 2H1.36241C0.604511 2 0 2.61201 0 3.37931V20.5933C0 21.1322 0.279699 21.5889 0.757895 21.8447C0.960902 21.9452 1.16391 22 1.36241 22C1.64211 22 1.94436 21.8995 2.19699 21.7168L5.12932 19.3647H16.8496C17.6075 19.3647 18.212 18.7253 18.212 17.9854V15.1446L17.206 16.2955C17.0526 16.4508 16.8496 16.6061 16.6241 16.6792Z" fill="#ADB5BD"/>
<path d="M4.64639 7.4986H13.5381C13.9937 7.4986 14.3456 7.14236 14.3456 6.68106C14.3456 6.24717 13.9937 5.86353 13.5381 5.86353H4.64639C4.19075 5.86353 3.83887 6.24717 3.83887 6.68106C3.86593 7.14236 4.21781 7.4986 4.64639 7.4986Z" fill="#ADB5BD"/>
<path d="M14.3501 10.5678C14.3501 10.1339 13.9983 9.75024 13.5426 9.75024H4.64639C4.19075 9.75024 3.83887 10.1339 3.83887 10.5678C3.83887 11.0291 4.19075 11.3853 4.64639 11.3853H13.5381C13.9937 11.3853 14.3501 11.0291 14.3501 10.5678Z" fill="#ADB5BD"/>
<path d="M3.86621 14.4549C3.86621 14.9162 4.21809 15.2724 4.67373 15.2724H12.3519L12.6316 13.6602H4.64666C4.21809 13.6647 3.86621 14.021 3.86621 14.4549Z" fill="#ADB5BD"/>
<path d="M15.2524 11.9612L19.9893 6.6084L22.2449 8.65453L17.5081 14.0074L15.2524 11.9612Z" fill="#ADB5BD"/>
<path d="M23.8466 6.1699L22.2812 4.73578C22.1053 4.55766 21.803 4.5805 21.6496 4.76319L20.7158 5.83649L22.9624 7.88263L23.8962 6.80932C24.0496 6.6312 24.0271 6.32062 23.8466 6.1699Z" fill="#ADB5BD"/>
<path d="M14.1202 16.1176L16.042 15.5558C16.1187 15.5284 16.1954 15.4782 16.245 15.4279L16.7999 14.8159L14.5533 12.7698L13.9984 13.3818C13.9488 13.4594 13.8991 13.5371 13.8991 13.6101L13.5698 15.606C13.5157 15.9394 13.8179 16.1952 14.1202 16.1176Z" fill="#ADB5BD"/>
</svg>
