<svg width="12" height="15" viewBox="0 0 12 15" fill="none" xmlns="http://www.w3.org/2000/svg">
<g clip-path="url(#clip0_1_104)">
<path d="M7.48433 0H0V13.6748L1.38055 15L2.79634 13.641L4.21214 15L5.62794 13.641L7.04373 15L8.45953 13.641L9.86945 15L11.25 13.6748V3.56955L7.48433 0ZM7.76338 1.51692L9.65503 3.33271H7.76338V1.51692ZM10.2983 13.3111L9.83714 13.7538L8.42134 12.3947L7.00555 13.7538L5.58975 12.3947L4.17396 13.7538L2.75816 12.3947L1.34236 13.7538L0.881201 13.3111V0.885338H6.80287V4.20113H10.2572V13.3111H10.2983Z" fill="#979BA4"/>
<path d="M2.61426 9.96429H8.61817V10.8496H2.61426V9.96429Z" fill="#979BA4"/>
<path d="M2.61426 7.92575H8.61817V8.81109H2.61426V7.92575Z" fill="#979BA4"/>
<path d="M2.61426 5.90414H8.61817V6.78948H2.61426V5.90414Z" fill="#979BA4"/>
</g>
<defs>
<clipPath id="clip0_1_104">
<rect width="11.25" height="15" fill="white"/>
</clipPath>
</defs>
</svg>
