<svg width="15" height="11" viewBox="0 0 15 11" fill="none" xmlns="http://www.w3.org/2000/svg">
<g clip-path="url(#clip0_1_117)">
<path d="M13.3929 10.7143H1.60714C1.18163 10.7143 0.771429 10.5459 0.471429 10.2429C0.168367 9.94286 0 9.53265 0 9.10714V1.60714C0 1.18163 0.168367 0.771429 0.471429 0.471429C0.771429 0.168367 1.18163 0 1.60714 0H13.3929C13.8184 0 14.2286 0.168367 14.5286 0.471429C14.8286 0.771429 15 1.18163 15 1.60714V9.10714C15 9.53265 14.8316 9.94286 14.5286 10.2429C14.2286 10.5459 13.8184 10.7143 13.3929 10.7143ZM1.60714 1.07143C1.46633 1.07143 1.32857 1.12653 1.22755 1.22755C1.12653 1.32857 1.07143 1.46633 1.07143 1.60714V9.10714C1.07143 9.24796 1.12653 9.38571 1.22755 9.48673C1.32857 9.58776 1.46327 9.64286 1.60714 9.64286H13.3929C13.5337 9.64286 13.6714 9.58776 13.7724 9.48673C13.8735 9.38571 13.9286 9.25102 13.9286 9.10714V1.60714C13.9286 1.46633 13.8735 1.32857 13.7724 1.22755C13.6714 1.12653 13.5367 1.07143 13.3929 1.07143H1.60714Z" fill="#979BA4"/>
<path d="M0.535767 3.21428H14.4643V4.28571H0.535767V3.21428Z" fill="#979BA4"/>
<path d="M9.10718 6.96428H12.3215V8.03571H9.10718V6.96428Z" fill="#979BA4"/>
</g>
<defs>
<clipPath id="clip0_1_117">
<rect width="15" height="10.7143" fill="white"/>
</clipPath>
</defs>
</svg>
