<svg width="24" height="24" viewBox="0 0 24 24" fill="none" xmlns="http://www.w3.org/2000/svg">
<g clip-path="url(#clip0_1_276)">
<path d="M5.24896 17.6168C5.1545 17.5016 5.07804 17.4086 5.01058 17.3067C4.90263 17.1384 4.74071 16.9745 4.70923 16.7885C4.62827 16.3588 4.34491 16.0531 4.15151 15.6899C3.9716 15.3444 3.84116 14.9634 3.73322 14.5869C3.64776 14.2813 3.68824 13.9801 3.94461 13.7409C3.99409 13.6921 4.00758 13.5947 4.00758 13.5238C4.01208 13.1207 4.01208 12.7132 4.00758 12.3145C4.00308 11.2159 4.62827 10.3699 5.68524 10.0465C6.40488 9.82946 7.14251 9.80288 7.87564 9.94463C9.01807 10.1661 9.71522 10.9413 9.82766 12.1285C9.87264 12.5714 9.84565 13.0144 9.84115 13.4574C9.84115 13.577 9.84565 13.6567 9.9536 13.763C10.0705 13.8737 10.1515 14.0775 10.165 14.2458C10.21 14.8571 9.9401 15.3754 9.58478 15.8538C9.41836 16.0753 9.31492 16.3145 9.22046 16.5803C9.09453 16.9391 8.88313 17.2669 8.68973 17.6478C8.77069 17.6921 8.90112 17.7807 9.04505 17.8427C9.83665 18.1971 10.6328 18.5293 11.4199 18.8881C13.075 19.6412 13.7497 20.9701 13.7677 22.7021C13.7722 23.0077 13.5923 23.2026 13.3269 23.2735C12.7737 23.4285 12.225 23.5924 11.6627 23.6722C9.35989 23.9734 7.04356 24.0797 4.72272 23.969C3.44986 23.9069 2.168 23.8095 0.940118 23.4418C0.0270756 23.1716 -0.130345 22.9546 0.0720531 22.0421C0.206985 21.4618 0.431873 20.9081 0.679248 20.3765C1.00309 19.6943 1.5743 19.2381 2.27145 18.9369C3.09903 18.5825 3.91762 18.2281 4.74521 17.8693C4.92062 17.7896 5.07354 17.7054 5.24896 17.6168Z" fill="#7286B9"/>
<path d="M16.4618 10.7021C16.7586 10.1883 17.0465 9.70542 17.3209 9.20929C17.7751 8.39423 17.8561 7.56145 17.4873 6.67995C17.3793 6.4186 17.4243 6.09523 17.3838 5.79844C17.3388 5.43078 17.3029 5.05869 17.2219 4.69988C17.0195 3.8361 16.4843 3.23366 15.6612 2.88814C15.2384 2.71539 14.7796 2.60907 14.3074 2.4629C14.1544 1.74529 14.6897 0.75747 15.5173 0.323362C15.9221 0.110737 16.3628 0.00442505 16.8171 0.00442505C17.2489 0.00442505 17.6897 0.0177141 18.1125 0.106308C19.1784 0.323362 19.8441 1.07198 19.97 2.1794C20.024 2.66223 19.9925 3.16278 20.015 3.65448C20.0195 3.73421 20.0825 3.80509 20.1184 3.87596C20.1859 4.01771 20.2984 4.1506 20.3208 4.29678C20.4018 4.89479 20.1634 5.4042 19.8306 5.87818C19.6237 6.17053 19.4663 6.47618 19.3493 6.81284C19.2369 7.14063 19.0255 7.43299 18.8411 7.76522C18.913 7.80951 19.0165 7.88039 19.1379 7.93355C19.9026 8.27463 20.6582 8.61129 21.4273 8.93465C23.1274 9.65669 23.901 10.9856 24 12.753C24.018 13.0764 23.8561 13.3023 23.5097 13.3776C23.1229 13.4662 22.7226 13.5194 22.3223 13.5725C21.895 13.6301 21.4633 13.6655 21.027 13.7187C20.8561 13.7409 20.7526 13.7054 20.6942 13.5327C20.4423 12.7619 19.8576 12.2968 19.1514 11.969C18.4858 11.6589 17.8111 11.3665 17.1454 11.0565C16.9206 10.9634 16.7137 10.8394 16.4618 10.7021Z" fill="#7286B9"/>
<path d="M12.1169 14.4408C12.3778 14.5648 12.6792 14.7198 12.9895 14.8571C13.5832 15.1185 14.1904 15.371 14.7886 15.6323C16.4303 16.3499 17.1499 17.6611 17.2669 19.3621C17.2894 19.7387 17.1499 19.9513 16.7721 20.0266C16.102 20.1462 15.4273 20.2259 14.7571 20.3145C14.5322 20.3455 14.2624 20.4253 14.087 20.3367C13.9295 20.2525 13.8756 19.9734 13.7811 19.7785C13.5517 19.2913 13.1334 18.99 12.6702 18.7553C12.072 18.4452 11.4423 18.1883 10.8261 17.8959C10.4708 17.732 10.1289 17.5548 9.72863 17.3643C10.03 16.8416 10.3178 16.3499 10.5877 15.8627C11.042 15.0476 11.1499 14.2104 10.7496 13.3378C10.7001 13.227 10.7046 13.0853 10.6912 12.9612C10.6327 12.4651 10.6102 11.9646 10.5202 11.4729C10.2998 10.3522 9.54422 9.701 8.47826 9.36435C8.1949 9.27132 7.89355 9.22703 7.59669 9.16058C7.45726 8.42082 7.92053 7.49945 8.65367 7.05648C9.03598 6.82171 9.45877 6.68439 9.90854 6.67996C10.3763 6.67553 10.8486 6.6711 11.3028 6.74641C12.3823 6.93688 13.066 7.64563 13.2234 8.73976C13.2909 9.24031 13.2684 9.75416 13.2774 10.2591C13.2774 10.3787 13.2819 10.4673 13.4033 10.5604C13.6327 10.7331 13.6282 11.0166 13.6057 11.2735C13.5517 11.8007 13.3133 12.2614 12.9985 12.6822C12.8456 12.8859 12.7511 13.103 12.6657 13.3422C12.5352 13.7054 12.3193 14.0509 12.1169 14.4408Z" fill="#7286B9"/>
<path d="M15.4588 11.0831C15.7016 11.2027 15.967 11.3444 16.2369 11.464C16.934 11.7741 17.6537 12.062 18.3418 12.3898C19.6732 13.0188 20.3388 14.1263 20.5637 15.526C20.5952 15.6988 20.6087 15.8804 20.6132 16.0532C20.6222 16.3943 20.4917 16.6025 20.1544 16.6733C19.7721 16.7619 19.3808 16.8195 18.994 16.8682C18.5442 16.9258 18.0989 16.9657 17.6492 17.0188C17.4873 17.0366 17.3748 17.0233 17.3163 16.8417C17.06 16.062 16.4708 15.5969 15.7511 15.2603C15.0495 14.9369 14.3388 14.6224 13.6372 14.2946C13.4618 14.2104 13.2999 14.1041 13.093 13.9889C13.3943 13.4707 13.6867 12.979 13.9655 12.4784C14.4018 11.6811 14.4963 10.8483 14.1229 9.99337C14.0645 9.85605 14.069 9.69658 14.051 9.54154C13.9925 9.04541 13.9655 8.54486 13.8711 8.05316C13.6822 7.13622 13.1244 6.50278 12.2519 6.15283C11.8471 5.99336 11.4153 5.89148 10.9385 5.7453C10.9475 5.5814 10.9295 5.3422 10.988 5.12515C11.2489 4.1639 11.8831 3.56147 12.8726 3.36213C13.5562 3.22481 14.2444 3.24253 14.919 3.42415C15.8995 3.69879 16.4438 4.37653 16.5877 5.3422C16.6687 5.84718 16.6372 6.36989 16.6462 6.88373C16.6507 7.00776 16.6597 7.08749 16.7811 7.18495C17.0285 7.37985 17.0465 7.68107 16.97 7.94242C16.8531 8.34995 16.7046 8.75748 16.4933 9.12072C16.2998 9.44408 16.1109 9.75859 15.985 10.1218C15.8591 10.4673 15.6432 10.7508 15.4588 11.0831Z" fill="#7286B9"/>
</g>
<defs>
<clipPath id="clip0_1_276">
<rect width="24" height="24" fill="white"/>
</clipPath>
</defs>
</svg>
